<svg width="25" height="22" viewBox="0 0 25 22" fill="none" xmlns="http://www.w3.org/2000/svg">
<g opacity="0.2">
<path d="M19.5989 9.64649C20.1885 9.64649 20.6665 9.1685 20.6665 8.57886C20.6665 7.98923 20.1885 7.51123 19.5989 7.51123C19.0092 7.51123 18.5312 7.98923 18.5312 8.57886C18.5312 9.1685 19.0092 9.64649 19.5989 9.64649Z" fill="black"/>
<path d="M14.0753 8.30469C13.2307 8.30469 12.405 8.55515 11.7027 9.0244C11.0004 9.49365 10.4531 10.1606 10.1298 10.941C9.80661 11.7213 9.72204 12.58 9.88682 13.4084C10.0516 14.2368 10.4583 14.9977 11.0556 15.5949C11.6528 16.1922 12.4138 16.5989 13.2422 16.7637C14.0706 16.9285 14.9292 16.8439 15.7096 16.5207C16.4899 16.1974 17.1569 15.6501 17.6261 14.9478C18.0954 14.2455 18.3458 13.4198 18.3458 12.5752C18.3458 11.4426 17.8959 10.3564 17.095 9.5555C16.2941 8.75462 15.2079 8.30469 14.0753 8.30469ZM14.0753 14.7105C13.653 14.7105 13.2401 14.5852 12.889 14.3506C12.5379 14.116 12.2642 13.7825 12.1026 13.3923C11.941 13.0022 11.8987 12.5728 11.9811 12.1586C12.0634 11.7444 12.2668 11.364 12.5654 11.0654C12.8641 10.7667 13.2445 10.5634 13.6587 10.481C14.0729 10.3986 14.5023 10.4409 14.8924 10.6025C15.2826 10.7641 15.6161 11.0378 15.8507 11.3889C16.0853 11.7401 16.2106 12.1529 16.2106 12.5752C16.2106 13.1415 15.9856 13.6846 15.5852 14.0851C15.1847 14.4855 14.6416 14.7105 14.0753 14.7105Z" fill="black"/>
<path d="M5.35938 1V8.30462" stroke="black" stroke-width="2" stroke-linecap="round"/>
<path d="M9.01172 4.65234L1.7071 4.65234" stroke="black" stroke-width="2" stroke-linecap="round"/>
<path d="M12.5808 4.3374H20.2925C21.9494 4.3374 23.2926 5.68055 23.2926 7.3374V18.0001C23.2926 19.6569 21.9494 21.0001 20.2926 21.0001H8.04297C6.38612 21.0001 5.04297 19.6569 5.04297 18.0001V12.272" stroke="black" stroke-width="2" stroke-linecap="round"/>
</g>
</svg>
