<svg width="23" height="13" viewBox="0 0 23 13" fill="none" xmlns="http://www.w3.org/2000/svg">
<path d="M0.5 1.25C0.5 1.25 1.37543 3.29142 3.85156 5.14077M11.5 7.75V11.75M11.5 7.75C9.98193 7.75 8.65525 7.49317 7.5 7.09816M11.5 7.75C12.8485 7.75 14 7.75 15.5 7.25M22 1.25C22 1.25 20.5 3.82321 18.8375 5.14077M3.85156 5.14077L1.5 8.25M3.85156 5.14077C4.8125 5.85848 6.01452 6.59023 7.5 7.09816M7.5 7.09816L6.5 10.25M15.5 7.25L16.5 10.25M15.5 7.25C16.6695 6.66523 17.8107 5.9545 18.8375 5.14077M18.8375 5.14077L21.4467 7.75" stroke="black" stroke-linecap="round"/>
</svg>
