<svg width="23" height="15" viewBox="0 0 23 15" fill="none" xmlns="http://www.w3.org/2000/svg">
<path d="M11.3907 0.5C6.57006 0.5 2.22267 3.18392 0.316439 7.33905C0.26952 7.44127 0.26952 7.55872 0.316439 7.66095C2.22251 11.8162 6.56966 14.5 11.3907 14.5C16.2118 14.5 20.5588 11.8151 22.465 7.66095C22.5119 7.55873 22.5119 7.44128 22.465 7.33905C20.5589 3.18376 16.2118 0.5 11.3907 0.5ZM11.3907 13.7239C6.93357 13.7239 2.9127 11.2879 1.09436 7.49654C2.91266 3.71128 6.93357 1.27275 11.3907 1.27275C15.8479 1.27275 19.8687 3.70874 21.6871 7.50012C19.8688 11.289 15.8479 13.7275 11.3907 13.7275V13.7239Z" fill="black"/>
<path d="M11.3878 3.74564C10.3919 3.74564 9.43679 4.14134 8.73272 4.84556C8.0285 5.54963 7.63281 6.50477 7.63281 7.5006C7.63281 8.49643 8.0285 9.45158 8.73272 10.1556C9.43679 10.8599 10.3919 11.2556 11.3878 11.2556C12.3836 11.2556 13.3387 10.8599 14.0428 10.1556C14.747 9.45158 15.1427 8.49643 15.1427 7.5006C15.1415 6.50509 14.7455 5.55074 14.0415 4.84679C13.3376 4.14288 12.3833 3.74688 11.3877 3.74561L11.3878 3.74564ZM11.3878 10.4821C10.5967 10.4821 9.83808 10.1678 9.27882 9.60851C8.71956 9.04909 8.40541 8.29046 8.40541 7.49957C8.40556 6.70848 8.71985 5.94988 9.2793 5.39062C9.83875 4.83136 10.5974 4.51737 11.3884 4.51752C12.1793 4.51768 12.9379 4.83196 13.4971 5.39158C14.0563 5.951 14.3703 6.70963 14.3702 7.50068C14.3694 8.29145 14.055 9.04957 13.4958 9.60871C12.9367 10.1679 12.1786 10.4823 11.3878 10.483L11.3878 10.4821Z" fill="black"/>
</svg>
