<svg width="15" height="15" viewBox="0 0 15 15" fill="none" xmlns="http://www.w3.org/2000/svg">
<path fill-rule="evenodd" clip-rule="evenodd" d="M14.7764 3.99609C15.0741 3.69849 15.0741 3.21598 14.7764 2.91827L12.0813 0.223197C11.7837 -0.074399 11.3012 -0.074399 11.0035 0.223197L1.57095 9.65575C1.27323 9.95347 1.27323 10.436 1.57095 10.7337L4.26602 13.4288C4.56362 13.7264 5.04626 13.7264 5.34384 13.4288L14.7764 3.99609ZM13.1597 3.45718L4.80519 11.8117L3.18807 10.1945L11.5425 1.84006L13.1597 3.45718Z" fill="black"/>
<path fill-rule="evenodd" clip-rule="evenodd" d="M8.84732 3.45809L11.5423 6.15317C11.8396 6.45089 12.3229 6.45089 12.6202 6.15317C12.9178 5.85582 12.9178 5.37254 12.6202 5.07535L9.92514 2.38028C9.62779 2.08255 9.14451 2.08255 8.84732 2.38028C8.54959 2.67762 8.54959 3.1609 8.84732 3.45809Z" fill="black"/>
<path fill-rule="evenodd" clip-rule="evenodd" d="M1.38662 9.95402L0.0392761 13.9968C-0.0522236 14.2704 0.0189856 14.5726 0.223295 14.7765C0.427604 14.9809 0.729536 15.0522 1.00353 14.9607L5.04601 13.613C5.44506 13.48 5.66071 13.0481 5.52775 12.6487C5.39465 12.2496 4.9628 12.0339 4.56336 12.167L1.96743 13.0324L2.83264 10.4358C2.96562 10.0367 2.74995 9.60485 2.35051 9.47188C1.95146 9.33891 1.51961 9.55458 1.38664 9.95401L1.38662 9.95402Z" fill="black"/>
</svg>
