<svg width="22" height="21" viewBox="0 0 22 21" fill="none" xmlns="http://www.w3.org/2000/svg">
<path opacity="0.2" d="M10.2006 0.717388C10.5119 -0.178172 11.7784 -0.178173 12.0897 0.717387L13.9732 6.13583C14.1105 6.5309 14.4792 6.79877 14.8973 6.80729L20.6326 6.92416C21.5805 6.94348 21.9719 8.14803 21.2164 8.72083L16.6451 12.1865C16.3119 12.4392 16.171 12.8726 16.2921 13.2729L17.9533 18.7636C18.2278 19.6711 17.2032 20.4156 16.4249 19.874L11.7163 16.5975C11.373 16.3586 10.9173 16.3586 10.574 16.5975L5.86534 19.874C5.0871 20.4156 4.06245 19.6711 4.33701 18.7636L5.99814 13.2729C6.11926 12.8726 5.97843 12.4392 5.64513 12.1865L1.07391 8.72083C0.318378 8.14803 0.709758 6.94348 1.65768 6.92416L7.39294 6.80729C7.81111 6.79877 8.1798 6.5309 8.31713 6.13583L10.2006 0.717388Z" fill="black"/>
</svg>
