<svg width="22" height="13" viewBox="0 0 22 13" fill="none" xmlns="http://www.w3.org/2000/svg">
<path d="M21.1727 11.1153C21.1727 11.0322 21.0897 11.0322 21.0897 10.9492C20.7576 10.285 20.0104 9.4548 19.0141 8.54155C18.516 8.12644 18.2669 7.79434 18.1009 7.62829C17.8518 7.2962 17.8518 7.04714 17.9348 6.71505C18.0179 6.46598 18.3499 6.05086 18.9311 5.30365C19.2632 4.88853 19.4292 4.63947 19.6783 4.3904C20.9236 2.72995 21.5048 1.65064 21.3387 1.1525L21.2557 1.06949C21.1727 0.986464 21.0897 0.903444 20.9236 0.903444C20.7576 0.820421 20.5085 0.820421 20.2595 0.903444H17.1046C17.0216 0.903444 17.0216 0.903444 16.8555 0.903444C16.7725 0.903444 16.6895 0.903444 16.6895 0.903444H16.6065H16.5234L16.4404 0.986459C16.3574 1.06948 16.3574 1.06948 16.3574 1.1525C16.0253 2.06575 15.6102 2.81296 15.1951 3.64319C14.946 4.05831 14.6969 4.47343 14.4479 4.80552C14.1988 5.13761 14.0327 5.38667 13.8667 5.55272C13.7006 5.71877 13.5346 5.80179 13.4516 5.96783C13.3685 6.05086 13.2025 6.13389 13.2025 6.05086C13.1195 6.05086 13.0365 6.05086 13.0365 5.96783C12.9534 5.88481 12.8704 5.80179 12.7874 5.71876C12.7044 5.63574 12.7044 5.46969 12.6213 5.30365C12.6213 5.1376 12.6213 4.97156 12.6213 4.88853C12.6213 4.80551 12.6213 4.55645 12.6213 4.3904C12.6213 4.14134 12.6213 3.97528 12.6213 3.89226C12.6213 3.64319 12.6213 3.31111 12.6213 2.97902C12.6213 2.64693 12.6213 2.39785 12.6213 2.2318C12.6213 2.06576 12.6213 1.81669 12.6213 1.65065C12.6213 1.40158 12.6213 1.23553 12.6213 1.1525C12.6213 1.06948 12.5383 0.903439 12.5383 0.820416C12.4553 0.737393 12.3723 0.654367 12.2893 0.571344C12.2062 0.488322 12.0402 0.488324 11.9572 0.405301C11.5421 0.322278 11.0439 0.239258 10.4628 0.239258C9.1344 0.239258 8.22114 0.322283 7.88905 0.488329C7.723 0.571352 7.55696 0.65437 7.47393 0.820416C7.30789 0.986462 7.30788 1.06949 7.39091 1.06949C7.80602 1.15251 8.13812 1.31855 8.30416 1.56762L8.38719 1.73367C8.47021 1.8167 8.4702 1.98273 8.55322 2.2318C8.63624 2.48087 8.63625 2.72994 8.63625 3.06203C8.63625 3.56017 8.63625 4.05831 8.63625 4.3904C8.63625 4.80552 8.55322 5.05458 8.55322 5.30365C8.55322 5.55272 8.47021 5.71877 8.38719 5.80179C8.30417 5.96784 8.30416 6.05086 8.22113 6.05086C8.22113 6.05086 8.22113 6.13388 8.13811 6.13388C8.05508 6.13388 7.97207 6.21691 7.80602 6.21691C7.723 6.21691 7.55696 6.13389 7.47393 6.05086C7.30789 5.96784 7.14184 5.80179 7.05882 5.63575C6.89277 5.4697 6.72672 5.22063 6.56068 4.88853C6.39463 4.55644 6.14555 4.22436 5.97951 3.72622L5.81348 3.39413C5.73045 3.22809 5.56441 2.89599 5.39836 2.48087C5.23231 2.06576 5.06626 1.73367 4.90022 1.31856C4.81719 1.15251 4.73418 1.06948 4.65116 0.986459H4.56813C4.56813 0.986459 4.4851 0.903444 4.40208 0.903444C4.31905 0.903444 4.23604 0.820416 4.15302 0.820416H1.16419C0.832094 0.820416 0.666051 0.903436 0.583028 0.986459L0.5 1.06949C0.5 1.06949 0.5 1.15251 0.5 1.23553C0.5 1.31855 0.500005 1.40157 0.583028 1.56762C0.998143 2.56389 1.49628 3.56017 1.99442 4.55645C2.49255 5.4697 2.9907 6.29993 3.32279 6.88109C3.7379 7.46225 4.06999 8.04341 4.4851 8.54155C4.90022 9.03969 5.14928 9.37178 5.2323 9.53782C5.39835 9.70387 5.48137 9.78689 5.56439 9.86991L5.81348 10.119C5.97952 10.285 6.22858 10.5341 6.56068 10.7832C6.89277 11.0322 7.30788 11.2813 7.72299 11.5304C8.13811 11.7794 8.63625 11.9455 9.13439 12.1115C9.71555 12.2776 10.2137 12.3606 10.7118 12.2776H11.9572C12.2062 12.2776 12.3723 12.1946 12.5383 12.0285L12.6213 11.9455C12.6213 11.8625 12.7044 11.8625 12.7044 11.7794C12.7044 11.6964 12.7044 11.6134 12.7044 11.4474C12.7044 11.1153 12.7044 10.8662 12.7874 10.6171C12.8704 10.3681 12.8704 10.202 12.9535 10.036C13.0365 9.86992 13.1195 9.78689 13.2025 9.70387C13.2855 9.62084 13.3686 9.53782 13.3686 9.53782H13.4516C13.6176 9.4548 13.8667 9.53782 14.0327 9.70387C14.2818 9.86991 14.5309 10.119 14.6969 10.3681C14.863 10.6171 15.112 10.8662 15.4441 11.1983C15.7762 11.5304 16.0253 11.7794 16.1913 11.8625L16.4404 12.0285C16.6064 12.1115 16.7725 12.1946 17.0216 12.2776C17.2706 12.3606 17.4367 12.3606 17.6027 12.3606L20.4255 12.2776C20.6746 12.2776 20.9236 12.1946 21.0897 12.1115C21.2557 12.0285 21.3387 11.9455 21.3387 11.7794C21.3387 11.6964 21.3387 11.5304 21.3387 11.4474C21.1727 11.2813 21.1727 11.1983 21.1727 11.1153Z" fill="white"/>
</svg>
